<svg width="67" height="47" viewBox="0 0 67 47" fill="none" xmlns="http://www.w3.org/2000/svg">
<path d="M33.7599 0.532977H59.8483C64.0452 0.532977 66.6337 3.09882 66.6337 7.26258C66.6337 18.1532 66.6337 29.0448 66.6337 39.9373C66.6337 44.1037 64.0479 46.675 59.8645 46.675H7.57684C3.45036 46.675 0.842887 44.0875 0.840179 39.994C0.840179 29.0673 0.840179 18.1415 0.840179 7.21662C0.840179 3.11775 3.44495 0.535681 7.57143 0.532977C16.3009 0.529372 25.0304 0.529372 33.7599 0.532977ZM5.71398 7.83307V39.7372C5.71398 41.4486 6.08222 41.8218 7.77722 41.8218H59.6587C61.3835 41.8218 61.7626 41.4541 61.7626 39.7723V7.89255C61.3971 8.16293 61.1832 8.31704 60.9801 8.47656L35.7907 28.4031C34.1905 29.6685 33.3024 29.6658 31.7292 28.422C26.5395 24.3105 21.3471 20.2 16.152 16.0903L5.71398 7.83307ZM33.7437 23.8095L56.9403 5.45919H10.5444L33.7437 23.8095Z" fill="white"/>
</svg>
