<svg width="86" height="105" viewBox="0 0 86 105" fill="none" xmlns="http://www.w3.org/2000/svg">
<path d="M64.9272 42.3008L51.1711 1.86225C51.0709 1.5528 50.8749 1.28197 50.6104 1.08772C50.3459 0.893477 50.0263 0.785564 49.6964 0.779115C49.3665 0.772667 49.0428 0.868005 48.7707 1.05176C48.4986 1.23552 48.2917 1.49848 48.1792 1.80377L32.5186 42.8359L37.1 42.7891L49.7568 10.4178L59.7665 42.8359H65.2006L64.9272 42.3008Z" fill="white"/>
<path d="M31.3123 48.5757L7.90308 104.777H13.6016L35.9086 48.5757H31.3123Z" fill="white"/>
<path d="M72.0817 76.7364L75.1746 71.8533L67.4498 50.2656C65.6968 50.868 64.6956 51.2832 62.3989 52.0405L72.0817 76.7364Z" fill="white"/>
<path d="M83.3184 14.8242L81.1317 13.9002L79.3995 15.5376L78.5022 13.3242L76.1283 13.2511L77.0494 11.0464L75.4242 9.30955L77.6169 8.40312L77.6911 6.01423L79.8808 6.94113L81.61 5.30078L82.5103 7.51423L84.8812 7.58733L83.9631 9.79201L85.5883 11.5289L83.3927 12.4353L83.3184 14.8242Z" fill="white"/>
<path d="M80.3295 18.0024C80.3295 18.0024 80.0323 59.9293 79.9432 73.0054C79.9194 76.3153 79.1885 81.6925 77.6228 84.6019C74.2833 90.789 69.2324 94.4089 62.4405 96.0755C48.9042 99.403 34.2983 94.1165 34.2983 77.4089C34.2983 68.7627 41.6013 58.9878 55.7437 53.6633C57.045 53.1808 67.3903 49.2597 69.381 48.7568C71.1369 48.3124 72.7353 47.8796 73.9357 47.751L74.212 47.2773L74.4081 46.9469L76.8622 42.8065L76.7939 42.6779L2.70964 42.5755C2.30907 42.5843 1.91879 42.702 1.58196 42.9156C1.24514 43.1291 0.974899 43.4302 0.801147 43.7855C0.627395 44.1408 0.556901 44.5365 0.597463 44.9288C0.638024 45.3211 0.788061 45.6947 1.03097 46.0083L20.7828 71.1983L22.7645 66.8124L6.45025 46.9557H51.2217C44.5218 51.827 38.3984 56.5112 34.224 62.8007C31.9066 66.2382 30.3721 70.1283 29.7258 74.2042C29.517 75.5805 29.4147 76.9705 29.4198 78.3621C29.4198 115.116 82.0259 112.599 84.7356 75.6019V17.9995H80.3295V18.0024Z" fill="white"/>
</svg>
