<svg width="218" height="281" viewBox="0 0 218 281" fill="none" xmlns="http://www.w3.org/2000/svg">
<g id="Layer3" clip-path="url(#clip0_1_70)">
<path id="Vector" d="M130.85 6.26003C130.27 4.47003 129.17 2.93003 127.66 1.80003C126.14 0.660028 124.32 0.0400282 122.43 2.82365e-05C120.54 -0.0499718 118.69 0.510028 117.12 1.59003C115.55 2.67003 114.39 4.18003 113.76 5.92003L73.74 112.8L95.95 112.57L121.88 44.98L142.4 113.35H166.61L130.85 6.26003Z" fill="#08361F"/>
<path id="Vector_2" d="M64.89 143.04L20.69 249.83C16.85 259.1 19.74 269.83 27.72 275.92L33.28 280.17L87.11 143.04H64.88H64.89Z" fill="#08361F"/>
<path id="Vector_3" d="M183.08 168.01L171.91 136.19L166.93 137.93C165.22 138.53 163.81 139.05 162.37 139.59C160.3 140.35 158.16 141.15 154.96 142.22L149.68 143.99L173.48 204.13L180.33 193.1C185.03 185.54 186.03 176.4 183.08 168V168.01Z" fill="#08361F"/>
<path id="Vector_4" d="M190.04 39.03V44.3C190.04 45.75 189.33 159.28 189.12 190.83C189.06 199.01 187.21 210.88 184.2 216.56C177.11 229.94 166.69 237.95 151.4 241.78C135.24 245.83 120.81 243.75 110.77 235.91C101.24 228.48 96.21 216.03 96.21 199.92C96.21 177.45 111.27 159.3 138.59 148.82C151.11 144.09 170.8 136.86 173.75 136.21L176.33 135.93L183.09 123.7C184.29 121.53 184.26 118.95 183.01 116.81C181.76 114.67 179.53 113.37 177.05 113.35L10.38 111.67H10.21C8.28003 111.71 6.40003 112.29 4.77003 113.34C3.15003 114.39 1.85003 115.86 1.02003 117.6C0.190026 119.34 -0.149974 121.27 0.0400261 123.2C0.230026 125.12 0.950026 126.95 2.12003 128.48L42.67 178.98L48.62 165.56C50.84 160.55 49.94 154.65 46.34 150.53L30.88 132.86H110.88C101.12 141.4 93.82 150.02 86.34 161.52C80.36 170.57 76.48 180.6 74.8 191.36C74.26 194.95 74 198.62 74.01 202.24C74.01 249.03 104.75 271.07 135.21 272.17C136.04 272.2 136.86 272.22 137.7 272.22C171.9 272.22 207.52 247 211.07 197.56V39.03H190.02H190.04Z" fill="#981B21"/>
<path id="Vector_5" d="M217.46 17.72L212.41 12.7L212.43 5.57998L205.31 5.59998L200.29 0.539978L195.27 5.59998L188.14 5.57998L188.16 12.7L183.11 17.72L188.16 22.74L188.14 29.87L195.27 29.84L200.29 34.9L205.31 29.84L212.43 29.87L212.41 22.74L217.46 17.72Z" fill="#08361F"/>
</g>
<defs>
<clipPath id="clip0_1_70">
<rect width="217.46" height="280.17" fill="white"/>
</clipPath>
</defs>
</svg>
